G04 #@! TF.GenerationSoftware,KiCad,Pcbnew,(6.0.5)*
G04 #@! TF.CreationDate,2022-10-09T17:06:01+09:00*
G04 #@! TF.ProjectId,3320LPF,33333230-4c50-4462-9e6b-696361645f70,Ver.1.0*
G04 #@! TF.SameCoordinates,Original*
G04 #@! TF.FileFunction,Soldermask,Bot*
G04 #@! TF.FilePolarity,Negative*
%FSLAX46Y46*%
G04 Gerber Fmt 4.6, Leading zero omitted, Abs format (unit mm)*
G04 Created by KiCad (PCBNEW (6.0.5)) date 2022-10-09 17:06:01*
%MOMM*%
%LPD*%
G01*
G04 APERTURE LIST*
G04 Aperture macros list*
%AMRoundRect*
0 Rectangle with rounded corners*
0 $1 Rounding radius*
0 $2 $3 $4 $5 $6 $7 $8 $9 X,Y pos of 4 corners*
0 Add a 4 corners polygon primitive as box body*
4,1,4,$2,$3,$4,$5,$6,$7,$8,$9,$2,$3,0*
0 Add four circle primitives for the rounded corners*
1,1,$1+$1,$2,$3*
1,1,$1+$1,$4,$5*
1,1,$1+$1,$6,$7*
1,1,$1+$1,$8,$9*
0 Add four rect primitives between the rounded corners*
20,1,$1+$1,$2,$3,$4,$5,0*
20,1,$1+$1,$4,$5,$6,$7,0*
20,1,$1+$1,$6,$7,$8,$9,0*
20,1,$1+$1,$8,$9,$2,$3,0*%
G04 Aperture macros list end*
%ADD10C,1.600000*%
%ADD11O,1.600000X1.600000*%
%ADD12R,1.700000X1.700000*%
%ADD13O,1.700000X1.700000*%
%ADD14C,3.200000*%
%ADD15R,1.800000X1.800000*%
%ADD16C,1.800000*%
%ADD17R,1.600000X1.600000*%
%ADD18RoundRect,0.250000X0.600000X0.725000X-0.600000X0.725000X-0.600000X-0.725000X0.600000X-0.725000X0*%
%ADD19O,1.700000X1.950000*%
%ADD20C,1.440000*%
%ADD21RoundRect,0.250000X0.600000X0.600000X-0.600000X0.600000X-0.600000X-0.600000X0.600000X-0.600000X0*%
%ADD22C,1.700000*%
G04 APERTURE END LIST*
D10*
G04 #@! TO.C,R18*
X162560000Y-116840000D03*
D11*
X152400000Y-116840000D03*
G04 #@! TD*
D12*
G04 #@! TO.C,J3*
X156210000Y-54610000D03*
D13*
X156210000Y-57150000D03*
G04 #@! TD*
D14*
G04 #@! TO.C,REF\u002A\u002A*
X111760000Y-52070000D03*
G04 #@! TD*
D15*
G04 #@! TO.C,RV6*
X171050000Y-123150000D03*
D16*
X171050000Y-120650000D03*
X171050000Y-118150000D03*
G04 #@! TD*
D15*
G04 #@! TO.C,RV2*
X171050000Y-101560000D03*
D16*
X171050000Y-99060000D03*
X171050000Y-96560000D03*
G04 #@! TD*
D10*
G04 #@! TO.C,R20*
X139700000Y-133350000D03*
D11*
X129540000Y-133350000D03*
G04 #@! TD*
D10*
G04 #@! TO.C,C8*
X148590000Y-119340000D03*
X148590000Y-114340000D03*
G04 #@! TD*
D15*
G04 #@! TO.C,D2*
X123190000Y-93980000D03*
D16*
X120650000Y-93980000D03*
G04 #@! TD*
D10*
G04 #@! TO.C,C7*
X148590000Y-106680000D03*
X148590000Y-101680000D03*
G04 #@! TD*
G04 #@! TO.C,C9*
X149860000Y-111760000D03*
X147360000Y-111760000D03*
G04 #@! TD*
G04 #@! TO.C,R23*
X121920000Y-120650000D03*
D11*
X111760000Y-120650000D03*
G04 #@! TD*
D10*
G04 #@! TO.C,R3*
X162560000Y-85090000D03*
D11*
X152400000Y-85090000D03*
G04 #@! TD*
D10*
G04 #@! TO.C,R7*
X162560000Y-77470000D03*
D11*
X152400000Y-77470000D03*
G04 #@! TD*
D15*
G04 #@! TO.C,RV1*
X171050000Y-58380000D03*
D16*
X171050000Y-55880000D03*
X171050000Y-53380000D03*
G04 #@! TD*
D17*
G04 #@! TO.C,C2*
X116775113Y-93980000D03*
D10*
X114275113Y-93980000D03*
G04 #@! TD*
G04 #@! TO.C,R17*
X162560000Y-120650000D03*
D11*
X152400000Y-120650000D03*
G04 #@! TD*
D10*
G04 #@! TO.C,C6*
X125730000Y-109180000D03*
X125730000Y-104180000D03*
G04 #@! TD*
G04 #@! TO.C,R21*
X139700000Y-129540000D03*
D11*
X129540000Y-129540000D03*
G04 #@! TD*
D10*
G04 #@! TO.C,R26*
X127000000Y-72390000D03*
D11*
X137160000Y-72390000D03*
G04 #@! TD*
D10*
G04 #@! TO.C,C3*
X148590000Y-72390000D03*
X146090000Y-72390000D03*
G04 #@! TD*
D15*
G04 #@! TO.C,D1*
X120650000Y-58420000D03*
D16*
X123190000Y-58420000D03*
G04 #@! TD*
D10*
G04 #@! TO.C,R4*
X162560000Y-81280000D03*
D11*
X152400000Y-81280000D03*
G04 #@! TD*
D10*
G04 #@! TO.C,R1*
X162560000Y-88900000D03*
D11*
X152400000Y-88900000D03*
G04 #@! TD*
D17*
G04 #@! TO.C,U2*
X140970000Y-76200000D03*
D11*
X140970000Y-78740000D03*
X140970000Y-81280000D03*
X140970000Y-83820000D03*
X148590000Y-83820000D03*
X148590000Y-81280000D03*
X148590000Y-78740000D03*
X148590000Y-76200000D03*
G04 #@! TD*
D14*
G04 #@! TO.C,REF\u002A\u002A*
X111760000Y-146050000D03*
G04 #@! TD*
D10*
G04 #@! TO.C,R2*
X162560000Y-92710000D03*
D11*
X152400000Y-92710000D03*
G04 #@! TD*
D15*
G04 #@! TO.C,RV5*
X171050000Y-144740000D03*
D16*
X171050000Y-142240000D03*
X171050000Y-139740000D03*
G04 #@! TD*
D18*
G04 #@! TO.C,J5*
X149760000Y-142765000D03*
D19*
X147260000Y-142765000D03*
X144760000Y-142765000D03*
X142260000Y-142765000D03*
X139760000Y-142765000D03*
X137260000Y-142765000D03*
G04 #@! TD*
D12*
G04 #@! TO.C,J2*
X123190000Y-142240000D03*
D13*
X123190000Y-144780000D03*
G04 #@! TD*
D10*
G04 #@! TO.C,C10*
X134620000Y-93940000D03*
X134620000Y-88940000D03*
G04 #@! TD*
D14*
G04 #@! TO.C,REF\u002A\u002A*
X163830000Y-52070000D03*
G04 #@! TD*
D20*
G04 #@! TO.C,RV4*
X157480000Y-71120000D03*
X160020000Y-68580000D03*
X162560000Y-71120000D03*
G04 #@! TD*
D10*
G04 #@! TO.C,C5*
X125730000Y-111720000D03*
X125730000Y-116720000D03*
G04 #@! TD*
D14*
G04 #@! TO.C,REF\u002A\u002A*
X163830000Y-146050000D03*
G04 #@! TD*
D18*
G04 #@! TO.C,J4*
X143510000Y-56405000D03*
D19*
X141010000Y-56405000D03*
X138510000Y-56405000D03*
X136010000Y-56405000D03*
G04 #@! TD*
D10*
G04 #@! TO.C,C4*
X143510000Y-87630000D03*
X141010000Y-87630000D03*
G04 #@! TD*
D17*
G04 #@! TO.C,U1*
X129540000Y-101600000D03*
D11*
X129540000Y-104140000D03*
X129540000Y-106680000D03*
X129540000Y-109220000D03*
X129540000Y-111760000D03*
X129540000Y-114300000D03*
X129540000Y-116840000D03*
X129540000Y-119380000D03*
X129540000Y-121920000D03*
X144780000Y-121920000D03*
X144780000Y-119380000D03*
X144780000Y-116840000D03*
X144780000Y-114300000D03*
X144780000Y-111760000D03*
X144780000Y-109220000D03*
X144780000Y-106680000D03*
X144780000Y-104140000D03*
X144780000Y-101600000D03*
G04 #@! TD*
D10*
G04 #@! TO.C,R19*
X152400000Y-113030000D03*
D11*
X162560000Y-113030000D03*
G04 #@! TD*
D10*
G04 #@! TO.C,R25*
X127000000Y-68580000D03*
D11*
X137160000Y-68580000D03*
G04 #@! TD*
D10*
G04 #@! TO.C,R9*
X121920000Y-105410000D03*
D11*
X111760000Y-105410000D03*
G04 #@! TD*
D10*
G04 #@! TO.C,R24*
X137160000Y-80010000D03*
D11*
X127000000Y-80010000D03*
G04 #@! TD*
D17*
G04 #@! TO.C,C1*
X114300000Y-58420000D03*
D10*
X116800000Y-58420000D03*
G04 #@! TD*
G04 #@! TO.C,R8*
X111760000Y-101600000D03*
D11*
X121920000Y-101600000D03*
G04 #@! TD*
D10*
G04 #@! TO.C,R13*
X152400000Y-109220000D03*
D11*
X162560000Y-109220000D03*
G04 #@! TD*
D10*
G04 #@! TO.C,R11*
X111760000Y-116840000D03*
D11*
X121920000Y-116840000D03*
G04 #@! TD*
D10*
G04 #@! TO.C,R5*
X113030000Y-63500000D03*
D11*
X123190000Y-63500000D03*
G04 #@! TD*
D10*
G04 #@! TO.C,R27*
X137160000Y-76200000D03*
D11*
X127000000Y-76200000D03*
G04 #@! TD*
D10*
G04 #@! TO.C,R12*
X121920000Y-109220000D03*
D11*
X111760000Y-109220000D03*
G04 #@! TD*
D10*
G04 #@! TO.C,R16*
X162560000Y-101600000D03*
D11*
X152400000Y-101600000D03*
G04 #@! TD*
D10*
G04 #@! TO.C,R10*
X111760000Y-113030000D03*
D11*
X121920000Y-113030000D03*
G04 #@! TD*
D10*
G04 #@! TO.C,R22*
X137160000Y-83820000D03*
D11*
X127000000Y-83820000D03*
G04 #@! TD*
D10*
G04 #@! TO.C,R14*
X111760000Y-124460000D03*
D11*
X121920000Y-124460000D03*
G04 #@! TD*
D15*
G04 #@! TO.C,RV3*
X171050000Y-79970000D03*
D16*
X171050000Y-77470000D03*
X171050000Y-74970000D03*
G04 #@! TD*
D10*
G04 #@! TO.C,R6*
X123190000Y-88900000D03*
D11*
X113030000Y-88900000D03*
G04 #@! TD*
D21*
G04 #@! TO.C,J1*
X118110000Y-81534000D03*
D22*
X115570000Y-81534000D03*
X118110000Y-78994000D03*
X115570000Y-78994000D03*
X118110000Y-76454000D03*
X115570000Y-76454000D03*
X118110000Y-73914000D03*
X115570000Y-73914000D03*
X118110000Y-71374000D03*
X115570000Y-71374000D03*
G04 #@! TD*
D10*
G04 #@! TO.C,R15*
X162560000Y-105410000D03*
D11*
X152400000Y-105410000D03*
G04 #@! TD*
M02*
